<?xml version="1.0" encoding="UTF-8"?>
<svg height="16px" viewBox="0 0 16 16" width="16px" xmlns="http://www.w3.org/2000/svg" xmlns:xlink="http://www.w3.org/1999/xlink">
    <filter id="a" height="100%" width="100%" x="0%" y="0%">
        <feColorMatrix color-interpolation-filters="sRGB" values="0 0 0 0 1 0 0 0 0 1 0 0 0 0 1 0 0 0 1 0"/>
    </filter>
    <mask id="b">
        <g filter="url(#a)">
            <rect fill-opacity="0.1" height="19.2" width="19.2" x="-1.6" y="-1.6"/>
        </g>
    </mask>
    <clipPath id="c">
        <rect height="152" width="192"/>
    </clipPath>
    <g mask="url(#b)">
        <g clip-path="url(#c)" transform="matrix(1 0 0 1 -168 -16)">
            <path d="m 72 26 c -29.824219 0 -54 24.175781 -54 54 c 0.007812 0.390625 0.023438 0.78125 0.042969 1.171875 c 0.453125 -29.484375 24.46875 -53.152344 53.957031 -53.171875 c 29.355469 0.015625 53.320312 23.480469 53.957031 52.828125 c 0.015625 -0.277344 0.03125 -0.550781 0.042969 -0.828125 c 0 -29.824219 -24.175781 -54 -54 -54 z m 0 0"/>
        </g>
    </g>
    <path d="m 8 1 c -3.867188 0 -7 3.132812 -7 7 s 3.132812 7 7 7 s 7 -3.132812 7 -7 s -3.132812 -7 -7 -7 z m -2.773438 3.097656 l 1.007813 1.398438 c -0.003906 0.003906 -0.007813 0.003906 -0.011719 0.007812 c -0.035156 0.027344 -0.074218 0.054688 -0.113281 0.082032 c -0.007813 0.011718 -0.019531 0.019531 -0.03125 0.027343 c -0.042969 0.035157 -0.082031 0.070313 -0.125 0.105469 c -0.039063 0.039062 -0.082031 0.078125 -0.121094 0.117188 c -0.023437 0.023437 -0.046875 0.046874 -0.070312 0.070312 c -0.015625 0.019531 -0.035157 0.039062 -0.050781 0.058594 c -0.007813 0.007812 -0.015626 0.015625 -0.023438 0.023437 c -0.035156 0.042969 -0.066406 0.082031 -0.101562 0.125 c -0.035157 0.050781 -0.074219 0.097657 -0.109376 0.144531 c -0.066406 0.101563 -0.128906 0.203126 -0.1875 0.308594 c -0.023437 0.054688 -0.050781 0.105469 -0.078124 0.15625 c 0 0.003906 0 0.011719 -0.003907 0.011719 c -0.015625 0.042969 -0.035156 0.085937 -0.054687 0.128906 c -0.007813 0.023438 -0.015625 0.046875 -0.027344 0.070313 c -0.003906 0.015625 -0.007812 0.035156 -0.015625 0.050781 c -0.011719 0.027344 -0.023437 0.058594 -0.03125 0.089844 c 0 0.003906 -0.003906 0.007812 -0.003906 0.011719 c -0.007813 0.027343 -0.015625 0.050781 -0.023438 0.074218 c -0.007812 0.027344 -0.015625 0.054688 -0.023437 0.082032 c -0.003906 0.019531 -0.003906 0.039062 -0.011719 0.054687 c -0.007813 0.035156 -0.015625 0.070313 -0.023437 0.109375 c -0.003907 0.019531 -0.007813 0.039062 -0.011719 0.0625 c -0.003907 0.039062 -0.011719 0.074219 -0.015625 0.113281 c -0.003906 0.023438 -0.007813 0.042969 -0.011719 0.066407 c -0.003906 0.039062 -0.003906 0.078124 -0.007813 0.113281 c 0 0.019531 -0.003906 0.039062 -0.003906 0.0625 c -0.003906 0.058593 -0.007812 0.117187 -0.007812 0.175781 c 0 0.054688 0.003906 0.105469 0.003906 0.15625 c 0.003906 0.042969 0.007812 0.082031 0.011719 0.121094 c 0.003906 0.03125 0.003906 0.058594 0.007812 0.085937 c 0.003907 0.019531 0.003907 0.039063 0.007813 0.054688 c 0.003906 0.03125 0.007812 0.058593 0.011718 0.085937 c 0.003907 0.007813 0.003907 0.015625 0.003907 0.019532 c 0.003906 0.03125 0.011719 0.0625 0.015625 0.09375 c 0.007812 0.03125 0.015625 0.0625 0.023437 0.09375 c 0.003907 0.023437 0.011719 0.042968 0.015625 0.0625 c 0.003906 0.015624 0.007813 0.03125 0.011719 0.046874 c 0.007813 0.03125 0.019531 0.0625 0.027344 0.089844 c 0.011719 0.039063 0.023437 0.074219 0.035156 0.105469 c 0.015625 0.042969 0.027344 0.082031 0.042969 0.121094 c 0.015625 0.039062 0.035156 0.078125 0.050781 0.113281 c 0.011719 0.027344 0.023437 0.054688 0.035156 0.078125 l 0.046875 0.09375 c 0.007813 0.011719 0.011719 0.027344 0.019532 0.039063 c 0.023437 0.042968 0.046874 0.085937 0.070312 0.125 c 0.007812 0.007812 0.015625 0.019531 0.019531 0.027343 c 0.019531 0.035157 0.042969 0.066407 0.0625 0.097657 c 0.027344 0.042968 0.058594 0.082031 0.085938 0.121093 c 0.003906 0.003907 0.003906 0.007813 0.007812 0.007813 c 0.019531 0.027344 0.039063 0.050781 0.054688 0.074218 c 0.015625 0.019532 0.03125 0.039063 0.046875 0.054688 c 0.007812 0.007812 0.011718 0.015625 0.015625 0.019531 c 0.019531 0.023438 0.042969 0.046875 0.0625 0.070313 c 0.035156 0.039062 0.070312 0.074218 0.101562 0.105468 s 0.0625 0.0625 0.09375 0.089844 c 0.003907 0.007813 0.007813 0.007813 0.011719 0.015625 c 0.027344 0.023438 0.054688 0.046875 0.082031 0.070313 c 0.019531 0.015625 0.035157 0.027344 0.050781 0.039062 c 0.03125 0.027344 0.0625 0.050782 0.09375 0.074219 c 0.042969 0.03125 0.082032 0.058594 0.121094 0.089844 c 0.03125 0.015625 0.058594 0.035156 0.085938 0.054687 c 0.015625 0.007813 0.027344 0.015625 0.039062 0.023438 c 0.003906 0.003906 0.007813 0.003906 0.011719 0.007812 c 0.003906 0 0.007813 0.003906 0.011719 0.003906 c 0.03125 0.019532 0.0625 0.039063 0.097656 0.058594 c 0.003906 0 0.003906 0.003906 0.007812 0.003906 c 0.035157 0.019532 0.070313 0.035157 0.101563 0.050782 c 0.011719 0.007812 0.023437 0.011718 0.03125 0.015625 c 0.042969 0.019531 0.085937 0.039062 0.125 0.058593 c 0.007813 0.003907 0.015625 0.003907 0.019531 0.007813 c 0.042969 0.015625 0.082032 0.035156 0.125 0.046875 c 0.003906 0.003906 0.007813 0.003906 0.007813 0.003906 c 0.015625 0.007813 0.027343 0.011719 0.039062 0.015625 c 0.035157 0.011719 0.066407 0.019531 0.097657 0.03125 c 0.011718 0.003907 0.015624 0.003907 0.023437 0.007813 c 0.042969 0.011718 0.082031 0.023437 0.125 0.035156 l -0.40625 1.589844 c -2.105469 -0.535156 -3.582031 -2.429688 -3.589844 -4.605469 c 0.007813 -1.527344 0.746094 -2.964844 1.988281 -3.855469 z m 2.773438 2.875 c 0.273438 0 0.53125 0.109375 0.726562 0.300782 c 0.191407 0.195312 0.300782 0.453124 0.296876 0.726562 c 0.003906 0.273438 -0.105469 0.53125 -0.296876 0.726562 c -0.195312 0.191407 -0.453124 0.300782 -0.726562 0.300782 s -0.53125 -0.109375 -0.726562 -0.300782 c -0.191407 -0.195312 -0.300782 -0.453124 -0.300782 -0.726562 s 0.109375 -0.53125 0.300782 -0.726562 c 0.195312 -0.191407 0.453124 -0.300782 0.726562 -0.300782 z m 0 0"/>
</svg>
