<?xml version="1.0" encoding="UTF-8"?>
<svg height="128px" viewBox="0 0 128 128" width="128px" xmlns="http://www.w3.org/2000/svg">
    <path d="m 123.949219 67.546875 c 0 33.261719 -26.839844 60.226563 -59.949219 60.226563 s -59.953125 -26.964844 -59.953125 -60.226563 c 0 -33.257813 26.84375 -60.222656 59.953125 -60.222656 s 59.949219 26.964843 59.949219 60.222656 z m 0 0" fill="#1a5fb4"/>
    <path d="m 123.949219 64 c 0 33.109375 -26.839844 59.949219 -59.949219 59.949219 s -59.949219 -26.839844 -59.949219 -59.949219 s 26.839844 -59.949219 59.949219 -59.949219 s 59.949219 26.839844 59.949219 59.949219 z m 0 0" fill="#3584e4"/>
    <path d="m 49.257812 121.988281 l 14.742188 -57.988281 l -34.898438 -48.570312 c -15.675781 11.21875 -24.996093 29.292968 -25.050781 48.570312 c 0.054688 27.386719 18.660157 51.253906 45.207031 57.988281 z m 0 0" fill="#62a0ea"/>
    <path d="m 117.664062 37.3125 l -0.828124 -0.152344 l -52.835938 26.839844 l 29.90625 51.800781 c 18.539062 -10.671875 29.988281 -30.410156 30.042969 -51.800781 c -0.003907 -9.261719 -2.15625 -18.398438 -6.285157 -26.6875 z m 0 0" fill="#1c71d8"/>
    <path d="m 93.1875 64 c 0 16.117188 -13.070312 29.1875 -29.1875 29.1875 s -29.1875 -13.070312 -29.1875 -29.1875 s 13.070312 -29.1875 29.1875 -29.1875 s 29.1875 13.070312 29.1875 29.1875 z m 0 0" fill="#5e5c64"/>
    <path d="m 64 34.8125 c -16.121094 0 -29.1875 13.066406 -29.1875 29.1875 c 0 16.117188 13.066406 29.1875 29.1875 29.1875 z m 0 0" fill="#241f31"/>
    <path d="m 89.839844 64 c 0 14.269531 -11.570313 25.839844 -25.839844 25.839844 s -25.839844 -11.570313 -25.839844 -25.839844 s 11.570313 -25.839844 25.839844 -25.839844 s 25.839844 11.570313 25.839844 25.839844 z m 0 0" fill="#3d3846"/>
    <path d="m 64 89.835938 c 14.269531 0.003906 25.839844 -11.566407 25.839844 -25.835938 s -11.570313 -25.839844 -25.839844 -25.839844 z m 0 0" fill="#77767b"/>
    <path d="m 68.996094 64 c 0 2.757812 -2.238282 4.996094 -4.996094 4.996094 s -4.996094 -2.238282 -4.996094 -4.996094 s 2.238282 -4.996094 4.996094 -4.996094 s 4.996094 2.238282 4.996094 4.996094 z m 0 0" fill="#241f31"/>
</svg>
